<svg width="20" height="20" viewBox="0 0 20 20" fill="none" xmlns="http://www.w3.org/2000/svg">
<path d="M9.16667 11.6667H10.8333C11.2754 11.6667 11.6993 11.4911 12.0118 11.1786C12.3244 10.866 12.5 10.4421 12.5 10C12.5 9.55801 12.3244 9.13409 12.0118 8.82153C11.6993 8.50897 11.2754 8.33337 10.8333 8.33337H8.33333C7.83333 8.33337 7.41667 8.50004 7.16667 8.83337L2.5 13.3334" stroke="#A3A3A3" stroke-width="1.67" stroke-linecap="round" stroke-linejoin="round"/>
<path d="M5.83325 16.6666L7.16659 15.4999C7.41659 15.1666 7.83325 14.9999 8.33325 14.9999H11.6666C12.5833 14.9999 13.4166 14.6666 13.9999 13.9999L17.8333 10.3333C18.1548 10.0294 18.3425 9.61019 18.355 9.16792C18.3675 8.72564 18.2038 8.29652 17.8999 7.97494C17.596 7.65337 17.1768 7.46568 16.7346 7.45318C16.2923 7.44068 15.8632 7.60438 15.5416 7.90827L12.0416 11.1583" stroke="#A3A3A3" stroke-width="1.67" stroke-linecap="round" stroke-linejoin="round"/>
<path d="M1.66675 12.5L6.66675 17.5" stroke="#A3A3A3" stroke-width="1.67" stroke-linecap="round" stroke-linejoin="round"/>
<path d="M16.25 7.08333C16.8333 6.5 17.5 5.75 17.5 4.83333C17.5582 4.32411 17.4428 3.81013 17.1724 3.3747C16.902 2.93927 16.4925 2.6079 16.0103 2.43429C15.528 2.26068 15.0013 2.255 14.5154 2.41818C14.0295 2.58136 13.613 2.90383 13.3333 3.33333C13.0358 2.93715 12.6192 2.64677 12.1445 2.50482C11.6698 2.36287 11.1622 2.37682 10.696 2.54464C10.2299 2.71245 9.82981 3.02528 9.55455 3.4372C9.27928 3.84913 9.14332 4.33845 9.16663 4.83333C9.16663 5.83333 9.83329 6.5 10.4166 7.16667L13.3333 10L16.25 7.08333Z" stroke="#A3A3A3" stroke-width="1.67" stroke-linecap="round" stroke-linejoin="round"/>
</svg>
