<svg width="20" height="20" viewBox="0 0 20 20" fill="none" xmlns="http://www.w3.org/2000/svg">
<g clip-path="url(#clip0_302_2478)">
<path d="M10.6916 1.81656C10.4744 1.71751 10.2385 1.66626 9.99989 1.66626C9.76123 1.66626 9.52536 1.71751 9.30822 1.81656L2.16656 5.06656C2.01868 5.13176 1.89295 5.23856 1.80469 5.37394C1.71643 5.50932 1.66943 5.66744 1.66943 5.82906C1.66943 5.99067 1.71643 6.1488 1.80469 6.28418C1.89295 6.41956 2.01868 6.52635 2.16656 6.59156L9.31656 9.84989C9.53369 9.94893 9.76956 10.0002 10.0082 10.0002C10.2469 10.0002 10.4828 9.94893 10.6999 9.84989L17.8499 6.59989C17.9978 6.53469 18.1235 6.42789 18.2118 6.29251C18.3 6.15713 18.347 5.999 18.347 5.83739C18.347 5.67578 18.3 5.51765 18.2118 5.38227C18.1235 5.24689 17.9978 5.14009 17.8499 5.07489L10.6916 1.81656Z" stroke="#A3A3A3" stroke-width="1.67" stroke-linecap="round" stroke-linejoin="round"/>
<path d="M18.3334 14.7083L10.6917 18.1749C10.4746 18.274 10.2387 18.3252 10.0001 18.3252C9.76142 18.3252 9.52555 18.274 9.30841 18.1749L1.66675 14.7083" stroke="#A3A3A3" stroke-width="1.67" stroke-linecap="round" stroke-linejoin="round"/>
<path d="M18.3334 10.5417L10.6917 14.0084C10.4746 14.1075 10.2387 14.1587 10.0001 14.1587C9.76142 14.1587 9.52555 14.1075 9.30841 14.0084L1.66675 10.5417" stroke="#A3A3A3" stroke-width="1.67" stroke-linecap="round" stroke-linejoin="round"/>
</g>
<defs>
<clipPath id="clip0_302_2478">
<rect width="20" height="20" fill="white"/>
</clipPath>
</defs>
</svg>
