<svg width="20" height="20" viewBox="0 0 20 20" fill="none" xmlns="http://www.w3.org/2000/svg">
<path d="M13.3333 10.8334L17.6858 13.7351C17.7485 13.7768 17.8214 13.8008 17.8967 13.8044C17.972 13.808 18.0468 13.7911 18.1133 13.7555C18.1797 13.7199 18.2352 13.667 18.274 13.6024C18.3127 13.5377 18.3332 13.4638 18.3333 13.3884V6.55839C18.3333 6.48508 18.314 6.41306 18.2772 6.3496C18.2405 6.28614 18.1877 6.23349 18.1241 6.19697C18.0606 6.16045 17.9885 6.14136 17.9152 6.1416C17.8419 6.14185 17.7699 6.16144 17.7066 6.19839L13.3333 8.75006" stroke="#A3A3A3" stroke-width="1.67" stroke-linecap="round" stroke-linejoin="round"/>
<path d="M11.6667 5H3.33341C2.41294 5 1.66675 5.74619 1.66675 6.66667V13.3333C1.66675 14.2538 2.41294 15 3.33341 15H11.6667C12.5872 15 13.3334 14.2538 13.3334 13.3333V6.66667C13.3334 5.74619 12.5872 5 11.6667 5Z" stroke="#A3A3A3" stroke-width="1.67" stroke-linecap="round" stroke-linejoin="round"/>
</svg>
